<mxfile host="app.diagrams.net" modified="2020-11-03T21:38:00.429Z" agent="5.0 (Windows NT 10.0; Win64; x64) AppleWebKit/537.36 (KHTML, like Gecko) Chrome/86.0.4240.183 Safari/537.36" etag="7frtY_BQGNjTOfcP-7uy" version="13.8.9" type="github">
  <diagram id="C5RBs43oDa-KdzZeNtuy" name="Page-1">
    <mxGraphModel dx="1017" dy="564" grid="1" gridSize="10" guides="1" tooltips="1" connect="1" arrows="1" fold="1" page="1" pageScale="1" pageWidth="827" pageHeight="1169" math="0" shadow="0">
      <root>
        <mxCell id="WIyWlLk6GJQsqaUBKTNV-0" />
        <mxCell id="WIyWlLk6GJQsqaUBKTNV-1" parent="WIyWlLk6GJQsqaUBKTNV-0" />
        <mxCell id="wVG6ULVXG1dx_2vsRddy-3" value="" style="edgeStyle=orthogonalEdgeStyle;rounded=0;orthogonalLoop=1;jettySize=auto;html=1;" edge="1" parent="WIyWlLk6GJQsqaUBKTNV-1" source="wVG6ULVXG1dx_2vsRddy-1" target="wVG6ULVXG1dx_2vsRddy-2">
          <mxGeometry relative="1" as="geometry" />
        </mxCell>
        <mxCell id="wVG6ULVXG1dx_2vsRddy-1" value="Start&lt;br&gt;ATM branch Bank" style="rounded=1;whiteSpace=wrap;html=1;" vertex="1" parent="WIyWlLk6GJQsqaUBKTNV-1">
          <mxGeometry x="350" width="120" height="60" as="geometry" />
        </mxCell>
        <mxCell id="wVG6ULVXG1dx_2vsRddy-5" value="" style="edgeStyle=orthogonalEdgeStyle;rounded=0;orthogonalLoop=1;jettySize=auto;html=1;" edge="1" parent="WIyWlLk6GJQsqaUBKTNV-1" source="wVG6ULVXG1dx_2vsRddy-2" target="wVG6ULVXG1dx_2vsRddy-4">
          <mxGeometry relative="1" as="geometry" />
        </mxCell>
        <mxCell id="wVG6ULVXG1dx_2vsRddy-2" value="Initialize&lt;br&gt;X = PIN number&lt;br&gt;Y = Biometric&lt;br&gt;Customer document list" style="whiteSpace=wrap;html=1;rounded=1;" vertex="1" parent="WIyWlLk6GJQsqaUBKTNV-1">
          <mxGeometry x="350" y="80" width="120" height="70" as="geometry" />
        </mxCell>
        <mxCell id="wVG6ULVXG1dx_2vsRddy-9" value="" style="edgeStyle=orthogonalEdgeStyle;rounded=0;orthogonalLoop=1;jettySize=auto;html=1;" edge="1" parent="WIyWlLk6GJQsqaUBKTNV-1" source="wVG6ULVXG1dx_2vsRddy-4" target="wVG6ULVXG1dx_2vsRddy-8">
          <mxGeometry relative="1" as="geometry" />
        </mxCell>
        <mxCell id="wVG6ULVXG1dx_2vsRddy-4" value="Customer insert Card&lt;br&gt;" style="whiteSpace=wrap;html=1;rounded=1;" vertex="1" parent="WIyWlLk6GJQsqaUBKTNV-1">
          <mxGeometry x="350" y="180" width="120" height="60" as="geometry" />
        </mxCell>
        <mxCell id="wVG6ULVXG1dx_2vsRddy-11" value="Yes" style="edgeStyle=orthogonalEdgeStyle;rounded=0;orthogonalLoop=1;jettySize=auto;html=1;" edge="1" parent="WIyWlLk6GJQsqaUBKTNV-1" source="wVG6ULVXG1dx_2vsRddy-8" target="wVG6ULVXG1dx_2vsRddy-10">
          <mxGeometry relative="1" as="geometry" />
        </mxCell>
        <mxCell id="wVG6ULVXG1dx_2vsRddy-13" value="No" style="edgeStyle=orthogonalEdgeStyle;rounded=0;orthogonalLoop=1;jettySize=auto;html=1;" edge="1" parent="WIyWlLk6GJQsqaUBKTNV-1" source="wVG6ULVXG1dx_2vsRddy-8" target="wVG6ULVXG1dx_2vsRddy-12">
          <mxGeometry relative="1" as="geometry" />
        </mxCell>
        <mxCell id="wVG6ULVXG1dx_2vsRddy-8" value="Same Bank" style="rhombus;whiteSpace=wrap;html=1;rounded=1;" vertex="1" parent="WIyWlLk6GJQsqaUBKTNV-1">
          <mxGeometry x="350" y="260" width="120" height="100" as="geometry" />
        </mxCell>
        <mxCell id="wVG6ULVXG1dx_2vsRddy-15" value="" style="edgeStyle=orthogonalEdgeStyle;rounded=0;orthogonalLoop=1;jettySize=auto;html=1;" edge="1" parent="WIyWlLk6GJQsqaUBKTNV-1" source="wVG6ULVXG1dx_2vsRddy-10" target="wVG6ULVXG1dx_2vsRddy-14">
          <mxGeometry relative="1" as="geometry" />
        </mxCell>
        <mxCell id="wVG6ULVXG1dx_2vsRddy-10" value="Customer same bank" style="whiteSpace=wrap;html=1;rounded=1;" vertex="1" parent="WIyWlLk6GJQsqaUBKTNV-1">
          <mxGeometry x="190" y="280" width="120" height="60" as="geometry" />
        </mxCell>
        <mxCell id="wVG6ULVXG1dx_2vsRddy-19" value="" style="edgeStyle=orthogonalEdgeStyle;rounded=0;orthogonalLoop=1;jettySize=auto;html=1;" edge="1" parent="WIyWlLk6GJQsqaUBKTNV-1" source="wVG6ULVXG1dx_2vsRddy-12" target="wVG6ULVXG1dx_2vsRddy-18">
          <mxGeometry relative="1" as="geometry" />
        </mxCell>
        <mxCell id="wVG6ULVXG1dx_2vsRddy-12" value="&#xa;&#xa;&lt;span style=&quot;color: rgb(60, 64, 67); font-family: roboto, arial, sans-serif; font-size: 14px; font-style: normal; font-weight: 400; letter-spacing: 0.2px; text-indent: 0px; text-transform: none; word-spacing: 0px; display: inline; float: none;&quot;&gt;Customers of other banks&lt;/span&gt;&#xa;&#xa;" style="whiteSpace=wrap;html=1;rounded=1;" vertex="1" parent="WIyWlLk6GJQsqaUBKTNV-1">
          <mxGeometry x="510" y="280" width="120" height="60" as="geometry" />
        </mxCell>
        <mxCell id="wVG6ULVXG1dx_2vsRddy-21" value="NO" style="edgeStyle=orthogonalEdgeStyle;rounded=0;orthogonalLoop=1;jettySize=auto;html=1;" edge="1" parent="WIyWlLk6GJQsqaUBKTNV-1" source="wVG6ULVXG1dx_2vsRddy-14" target="wVG6ULVXG1dx_2vsRddy-20">
          <mxGeometry relative="1" as="geometry" />
        </mxCell>
        <mxCell id="wVG6ULVXG1dx_2vsRddy-47" value="YES" style="edgeStyle=orthogonalEdgeStyle;rounded=0;orthogonalLoop=1;jettySize=auto;html=1;entryX=0.5;entryY=0;entryDx=0;entryDy=0;" edge="1" parent="WIyWlLk6GJQsqaUBKTNV-1" source="wVG6ULVXG1dx_2vsRddy-14" target="wVG6ULVXG1dx_2vsRddy-36">
          <mxGeometry relative="1" as="geometry" />
        </mxCell>
        <mxCell id="wVG6ULVXG1dx_2vsRddy-14" value="PIN" style="rhombus;whiteSpace=wrap;html=1;rounded=1;" vertex="1" parent="WIyWlLk6GJQsqaUBKTNV-1">
          <mxGeometry x="200" y="370" width="100" height="100" as="geometry" />
        </mxCell>
        <mxCell id="wVG6ULVXG1dx_2vsRddy-24" style="edgeStyle=orthogonalEdgeStyle;rounded=0;orthogonalLoop=1;jettySize=auto;html=1;entryX=0.5;entryY=0;entryDx=0;entryDy=0;" edge="1" parent="WIyWlLk6GJQsqaUBKTNV-1" source="wVG6ULVXG1dx_2vsRddy-18">
          <mxGeometry relative="1" as="geometry">
            <mxPoint x="400" y="600" as="targetPoint" />
            <Array as="points">
              <mxPoint x="570" y="530" />
              <mxPoint x="400" y="530" />
            </Array>
          </mxGeometry>
        </mxCell>
        <mxCell id="wVG6ULVXG1dx_2vsRddy-18" value="PIN" style="whiteSpace=wrap;html=1;rounded=1;" vertex="1" parent="WIyWlLk6GJQsqaUBKTNV-1">
          <mxGeometry x="510" y="390" width="120" height="60" as="geometry" />
        </mxCell>
        <mxCell id="wVG6ULVXG1dx_2vsRddy-23" value="" style="edgeStyle=orthogonalEdgeStyle;rounded=0;orthogonalLoop=1;jettySize=auto;html=1;" edge="1" parent="WIyWlLk6GJQsqaUBKTNV-1" source="wVG6ULVXG1dx_2vsRddy-20">
          <mxGeometry relative="1" as="geometry">
            <mxPoint x="400" y="600" as="targetPoint" />
          </mxGeometry>
        </mxCell>
        <mxCell id="wVG6ULVXG1dx_2vsRddy-20" value="Biometric" style="whiteSpace=wrap;html=1;rounded=1;" vertex="1" parent="WIyWlLk6GJQsqaUBKTNV-1">
          <mxGeometry x="190" y="500" width="120" height="60" as="geometry" />
        </mxCell>
        <mxCell id="wVG6ULVXG1dx_2vsRddy-32" value="NO" style="edgeStyle=orthogonalEdgeStyle;rounded=0;orthogonalLoop=1;jettySize=auto;html=1;" edge="1" parent="WIyWlLk6GJQsqaUBKTNV-1" source="wVG6ULVXG1dx_2vsRddy-27" target="wVG6ULVXG1dx_2vsRddy-31">
          <mxGeometry relative="1" as="geometry" />
        </mxCell>
        <mxCell id="wVG6ULVXG1dx_2vsRddy-34" value="Yes" style="edgeStyle=orthogonalEdgeStyle;rounded=0;orthogonalLoop=1;jettySize=auto;html=1;entryX=0.5;entryY=0;entryDx=0;entryDy=0;" edge="1" parent="WIyWlLk6GJQsqaUBKTNV-1" source="wVG6ULVXG1dx_2vsRddy-27" target="wVG6ULVXG1dx_2vsRddy-35">
          <mxGeometry relative="1" as="geometry">
            <mxPoint x="500" y="760" as="targetPoint" />
          </mxGeometry>
        </mxCell>
        <mxCell id="wVG6ULVXG1dx_2vsRddy-27" value="&lt;span style=&quot;color: rgb(60 , 64 , 67) ; font-family: &amp;#34;roboto&amp;#34; , &amp;#34;arial&amp;#34; , sans-serif ; font-size: 14px ; font-style: normal ; font-weight: 400 ; letter-spacing: 0.2px ; text-indent: 0px ; text-transform: none ; word-spacing: 0px ; display: inline ; float: none&quot;&gt;PIN&lt;br&gt;or Biometric&lt;br&gt;&lt;/span&gt;" style="rhombus;whiteSpace=wrap;html=1;" vertex="1" parent="WIyWlLk6GJQsqaUBKTNV-1">
          <mxGeometry x="350" y="705" width="100" height="110" as="geometry" />
        </mxCell>
        <mxCell id="wVG6ULVXG1dx_2vsRddy-40" value="YES" style="edgeStyle=orthogonalEdgeStyle;rounded=0;orthogonalLoop=1;jettySize=auto;html=1;" edge="1" parent="WIyWlLk6GJQsqaUBKTNV-1" source="wVG6ULVXG1dx_2vsRddy-31" target="wVG6ULVXG1dx_2vsRddy-39">
          <mxGeometry relative="1" as="geometry" />
        </mxCell>
        <mxCell id="wVG6ULVXG1dx_2vsRddy-43" value="NO" style="edgeStyle=orthogonalEdgeStyle;rounded=0;orthogonalLoop=1;jettySize=auto;html=1;" edge="1" parent="WIyWlLk6GJQsqaUBKTNV-1" source="wVG6ULVXG1dx_2vsRddy-31" target="wVG6ULVXG1dx_2vsRddy-42">
          <mxGeometry relative="1" as="geometry" />
        </mxCell>
        <mxCell id="wVG6ULVXG1dx_2vsRddy-31" value="n&amp;lt;=3" style="rhombus;whiteSpace=wrap;html=1;" vertex="1" parent="WIyWlLk6GJQsqaUBKTNV-1">
          <mxGeometry x="100" y="720" width="80" height="80" as="geometry" />
        </mxCell>
        <mxCell id="wVG6ULVXG1dx_2vsRddy-49" value="" style="edgeStyle=orthogonalEdgeStyle;rounded=0;orthogonalLoop=1;jettySize=auto;html=1;" edge="1" parent="WIyWlLk6GJQsqaUBKTNV-1" source="wVG6ULVXG1dx_2vsRddy-35" target="wVG6ULVXG1dx_2vsRddy-48">
          <mxGeometry relative="1" as="geometry" />
        </mxCell>
        <mxCell id="wVG6ULVXG1dx_2vsRddy-35" value="Customer Input:&lt;br&gt;Amount cash withdraw" style="rounded=1;whiteSpace=wrap;html=1;" vertex="1" parent="WIyWlLk6GJQsqaUBKTNV-1">
          <mxGeometry x="340" y="840" width="120" height="60" as="geometry" />
        </mxCell>
        <mxCell id="wVG6ULVXG1dx_2vsRddy-37" style="edgeStyle=orthogonalEdgeStyle;rounded=0;orthogonalLoop=1;jettySize=auto;html=1;entryX=0.5;entryY=0;entryDx=0;entryDy=0;" edge="1" parent="WIyWlLk6GJQsqaUBKTNV-1" source="wVG6ULVXG1dx_2vsRddy-36" target="wVG6ULVXG1dx_2vsRddy-27">
          <mxGeometry relative="1" as="geometry" />
        </mxCell>
        <mxCell id="wVG6ULVXG1dx_2vsRddy-36" value="N is times to attemts" style="rounded=1;whiteSpace=wrap;html=1;" vertex="1" parent="WIyWlLk6GJQsqaUBKTNV-1">
          <mxGeometry x="340" y="600" width="120" height="60" as="geometry" />
        </mxCell>
        <mxCell id="wVG6ULVXG1dx_2vsRddy-46" style="edgeStyle=orthogonalEdgeStyle;rounded=0;orthogonalLoop=1;jettySize=auto;html=1;entryX=0;entryY=0.5;entryDx=0;entryDy=0;" edge="1" parent="WIyWlLk6GJQsqaUBKTNV-1" source="wVG6ULVXG1dx_2vsRddy-39" target="wVG6ULVXG1dx_2vsRddy-36">
          <mxGeometry relative="1" as="geometry" />
        </mxCell>
        <mxCell id="wVG6ULVXG1dx_2vsRddy-39" value="Get next time&amp;nbsp;&lt;br&gt;n = n+1" style="whiteSpace=wrap;html=1;" vertex="1" parent="WIyWlLk6GJQsqaUBKTNV-1">
          <mxGeometry x="80" y="600" width="120" height="60" as="geometry" />
        </mxCell>
        <mxCell id="wVG6ULVXG1dx_2vsRddy-54" style="edgeStyle=orthogonalEdgeStyle;rounded=0;orthogonalLoop=1;jettySize=auto;html=1;entryX=0;entryY=0.5;entryDx=0;entryDy=0;" edge="1" parent="WIyWlLk6GJQsqaUBKTNV-1" source="wVG6ULVXG1dx_2vsRddy-42" target="wVG6ULVXG1dx_2vsRddy-52">
          <mxGeometry relative="1" as="geometry">
            <Array as="points">
              <mxPoint x="140" y="1180" />
            </Array>
          </mxGeometry>
        </mxCell>
        <mxCell id="wVG6ULVXG1dx_2vsRddy-42" value="Print out&lt;br&gt;&quot;Card has been hold, contract your bank for help.&quot;" style="whiteSpace=wrap;html=1;" vertex="1" parent="WIyWlLk6GJQsqaUBKTNV-1">
          <mxGeometry x="80" y="840" width="120" height="60" as="geometry" />
        </mxCell>
        <mxCell id="wVG6ULVXG1dx_2vsRddy-51" value="YES" style="edgeStyle=orthogonalEdgeStyle;rounded=0;orthogonalLoop=1;jettySize=auto;html=1;" edge="1" parent="WIyWlLk6GJQsqaUBKTNV-1" source="wVG6ULVXG1dx_2vsRddy-48" target="wVG6ULVXG1dx_2vsRddy-50">
          <mxGeometry relative="1" as="geometry" />
        </mxCell>
        <mxCell id="wVG6ULVXG1dx_2vsRddy-57" value="NO" style="edgeStyle=orthogonalEdgeStyle;rounded=0;orthogonalLoop=1;jettySize=auto;html=1;" edge="1" parent="WIyWlLk6GJQsqaUBKTNV-1" source="wVG6ULVXG1dx_2vsRddy-48" target="wVG6ULVXG1dx_2vsRddy-56">
          <mxGeometry relative="1" as="geometry" />
        </mxCell>
        <mxCell id="wVG6ULVXG1dx_2vsRddy-48" value="Enough cash to withdraw" style="rhombus;whiteSpace=wrap;html=1;rounded=1;" vertex="1" parent="WIyWlLk6GJQsqaUBKTNV-1">
          <mxGeometry x="350" y="930" width="100" height="100" as="geometry" />
        </mxCell>
        <mxCell id="wVG6ULVXG1dx_2vsRddy-53" value="" style="edgeStyle=orthogonalEdgeStyle;rounded=0;orthogonalLoop=1;jettySize=auto;html=1;" edge="1" parent="WIyWlLk6GJQsqaUBKTNV-1" source="wVG6ULVXG1dx_2vsRddy-50" target="wVG6ULVXG1dx_2vsRddy-52">
          <mxGeometry relative="1" as="geometry" />
        </mxCell>
        <mxCell id="wVG6ULVXG1dx_2vsRddy-50" value="Withdraw Cash" style="whiteSpace=wrap;html=1;rounded=1;" vertex="1" parent="WIyWlLk6GJQsqaUBKTNV-1">
          <mxGeometry x="340" y="1050" width="120" height="60" as="geometry" />
        </mxCell>
        <mxCell id="wVG6ULVXG1dx_2vsRddy-52" value="END" style="whiteSpace=wrap;html=1;rounded=1;" vertex="1" parent="WIyWlLk6GJQsqaUBKTNV-1">
          <mxGeometry x="340" y="1150" width="120" height="60" as="geometry" />
        </mxCell>
        <mxCell id="wVG6ULVXG1dx_2vsRddy-58" style="edgeStyle=orthogonalEdgeStyle;rounded=0;orthogonalLoop=1;jettySize=auto;html=1;entryX=1;entryY=0.5;entryDx=0;entryDy=0;" edge="1" parent="WIyWlLk6GJQsqaUBKTNV-1" source="wVG6ULVXG1dx_2vsRddy-56" target="wVG6ULVXG1dx_2vsRddy-35">
          <mxGeometry relative="1" as="geometry">
            <Array as="points">
              <mxPoint x="580" y="870" />
            </Array>
          </mxGeometry>
        </mxCell>
        <mxCell id="wVG6ULVXG1dx_2vsRddy-59" style="edgeStyle=orthogonalEdgeStyle;rounded=0;orthogonalLoop=1;jettySize=auto;html=1;entryX=1;entryY=0.5;entryDx=0;entryDy=0;" edge="1" parent="WIyWlLk6GJQsqaUBKTNV-1" source="wVG6ULVXG1dx_2vsRddy-56" target="wVG6ULVXG1dx_2vsRddy-52">
          <mxGeometry relative="1" as="geometry">
            <Array as="points">
              <mxPoint x="580" y="1180" />
            </Array>
          </mxGeometry>
        </mxCell>
        <mxCell id="wVG6ULVXG1dx_2vsRddy-56" value="Reinput another amount or Cancel" style="whiteSpace=wrap;html=1;rounded=1;" vertex="1" parent="WIyWlLk6GJQsqaUBKTNV-1">
          <mxGeometry x="520" y="950" width="120" height="60" as="geometry" />
        </mxCell>
      </root>
    </mxGraphModel>
  </diagram>
</mxfile>
